HIERARCHY
ROOT Hips
{
	OFFSET -9.916843 91.979286 100.905800
	CHANNELS 6 Xposition Yposition Zposition Zrotation Yrotation Xrotation 
	JOINT LeftUpLeg
	{
		OFFSET 0.103459 1.857831 10.548505
		CHANNELS 3 Zrotation Yrotation Xrotation
		JOINT LeftLeg
		{
			OFFSET 43.500004 -0.000023 -0.000004
			CHANNELS 3 Zrotation Yrotation Xrotation
			JOINT LeftFoot
			{
				OFFSET 42.372204 0.000019 -0.000006
				CHANNELS 3 Zrotation Yrotation Xrotation
				JOINT LeftToe
				{
					OFFSET 17.300005 0.000001 -0.000002
					CHANNELS 3 Zrotation Yrotation Xrotation
					End Site
					{
						OFFSET 0.000000 0.000000 0.000000
					}
				}
			}
		}
	}
	JOINT RightUpLeg
	{
		OFFSET 0.103461 1.857828 -10.548505
		CHANNELS 3 Zrotation Yrotation Xrotation
		JOINT RightLeg
		{
			OFFSET 43.500046 -0.000019 0.000006
			CHANNELS 3 Zrotation Yrotation Xrotation
			JOINT RightFoot
			{
				OFFSET 42.372261 -0.000015 0.000011
				CHANNELS 3 Zrotation Yrotation Xrotation
				JOINT RightToe
				{
					OFFSET 17.299999 -0.000003 0.000002
					CHANNELS 3 Zrotation Yrotation Xrotation
					End Site
					{
						OFFSET 0.000000 0.000000 0.000000
					}
				}
			}
		}
	}
	JOINT Spine
	{
		OFFSET 6.901964 -2.603731 0.000000
		CHANNELS 3 Zrotation Yrotation Xrotation
		JOINT Spine1
		{
			OFFSET 12.588102 -0.000003 0.000000
			CHANNELS 3 Zrotation Yrotation Xrotation
			JOINT Spine2
			{
				OFFSET 12.343204 0.000002 0.000000
				CHANNELS 3 Zrotation Yrotation Xrotation
				JOINT Neck
				{
					OFFSET 25.832891 -0.000013 0.000001
					CHANNELS 3 Zrotation Yrotation Xrotation
					JOINT Head
					{
						OFFSET 11.766613 0.000015 -0.000000
						CHANNELS 3 Zrotation Yrotation Xrotation
						End Site
						{
							OFFSET 0.000000 0.000000 0.000000
						}
					}
				}
				JOINT LeftShoulder
				{
					OFFSET 19.745911 -1.480375 6.000106
					CHANNELS 3 Zrotation Yrotation Xrotation
					JOINT LeftArm
					{
						OFFSET 11.284125 -0.000012 -0.000024
						CHANNELS 3 Zrotation Yrotation Xrotation
						JOINT LeftForeArm
						{
							OFFSET 33.000050 0.000007 0.000027
							CHANNELS 3 Zrotation Yrotation Xrotation
							JOINT LeftHand
							{
								OFFSET 25.200005 0.000018 0.000002
								CHANNELS 3 Zrotation Yrotation Xrotation
								End Site
								{
									OFFSET 0.000000 0.000000 0.000000
								}
							}
						}
					}
				}
				JOINT RightShoulder
				{
					OFFSET 19.746092 -1.480375 -6.000074
					CHANNELS 3 Zrotation Yrotation Xrotation
					JOINT RightArm
					{
						OFFSET 11.284139 -0.000017 -0.000020
						CHANNELS 3 Zrotation Yrotation Xrotation
						JOINT RightForeArm
						{
							OFFSET 33.000099 0.000021 0.000012
							CHANNELS 3 Zrotation Yrotation Xrotation
							JOINT RightHand
							{
								OFFSET 25.199780 0.000137 0.000427
								CHANNELS 3 Zrotation Yrotation Xrotation
								End Site
								{
									OFFSET 0.000000 0.000000 0.000000
								}
							}
						}
					}
				}
			}
		}
	}
}
MOTION
Frames: 7
Frame Time: 0.033333
-21.206120 82.864922 -166.987106 92.353932 6.079719 -78.744076 134.018762 -7.662201 166.495451 -53.870262 4.200324 2.759468 83.414252 -1.841183 1.026799 21.454555 0.003083 -0.000002 156.034538 5.010508 -176.614950 -57.921527 0.283008 8.235743 103.046593 -5.044917 12.400554 21.454560 -0.003106 -0.000017 15.895244 0.320487 0.955664 21.781721 0.455282 1.954504 21.463820 0.467219 1.951739 18.348238 -4.737078 7.706963 -18.992000 -6.262313 10.091421 139.728171 -78.747245 39.435969 -37.643416 61.929154 -25.036465 -83.463266 -7.263460 2.525164 4.249548 -14.490996 28.633097 86.666829 71.429517 -93.357963 -50.385114 -46.343397 44.024555 -131.527300 -4.081739 -3.825641 -5.163422 20.915211 -24.350832 
-21.332100 83.053459 -167.337601 92.646141 6.209871 -78.703122 134.093962 -7.711589 166.799121 -53.815030 4.225144 2.660833 83.538391 -1.793325 0.935520 21.454553 0.003095 0.000000 156.580065 4.966614 -176.376644 -57.000562 0.506703 8.085802 102.935104 -4.939590 12.307320 21.454560 -0.003111 -0.000017 15.895489 0.364925 1.015392 21.783241 0.532121 2.081259 21.465350 0.544811 2.078031 17.587761 -4.447747 7.434421 -18.907919 -5.724499 9.573917 140.008879 -78.689271 39.156539 -36.782976 61.757710 -24.117046 -83.102796 -7.630219 2.535036 4.728121 -12.565874 30.770497 86.433483 70.980036 -93.629408 -54.320037 -45.061070 49.621519 -132.948895 -4.333242 -3.859909 -5.820640 25.272909 -20.577627 
-21.429150 83.222130 -167.653397 92.848779 6.322922 -78.536985 134.111024 -7.617795 167.077451 -53.798467 4.280050 2.536235 83.478306 -1.720795 0.873042 21.454550 0.003091 -0.000000 157.102069 4.983405 -176.035340 -56.187291 0.620468 7.968793 102.849303 -4.855854 12.297210 21.454558 -0.003112 -0.000017 15.912437 0.420993 1.033250 21.818353 0.639565 2.127285 21.500481 0.652527 2.123404 16.603070 -4.191237 7.160303 -18.655436 -5.441124 9.129963 140.014807 -78.680952 39.151204 -35.990968 61.578035 -23.333528 -83.011476 -7.749022 2.539354 4.563392 -11.561226 31.546506 86.620083 70.899679 -93.453660 -56.620195 -43.747751 53.621916 -132.944701 -4.463776 -3.850962 -7.332792 26.135357 -21.189617 
-21.505341 83.353020 -167.925995 92.947543 6.457120 -78.296029 134.074715 -7.472507 167.383539 -53.819777 4.158979 2.404448 83.341319 -1.615238 0.920129 21.454557 0.003090 -0.000001 157.510391 5.049693 -175.733664 -55.562452 0.663176 7.919039 102.806710 -4.819062 12.374889 21.454557 -0.003112 -0.000018 15.918688 0.462657 1.001154 21.831622 0.728045 2.071550 21.513728 0.740679 2.067133 15.814581 -4.059309 6.906473 -18.497891 -5.434006 8.819841 140.237608 -78.645298 38.928489 -35.101356 61.306870 -22.821018 -83.228519 -7.525246 2.533196 4.780232 -10.726721 31.159801 87.108462 70.934882 -92.970568 -56.473572 -42.670545 54.302391 -132.469402 -4.398761 -3.838314 -8.318840 25.802428 -23.337727 
-21.560011 83.474823 -168.159897 93.007348 6.612989 -78.051884 133.985021 -7.365809 167.333392 -53.859897 4.202755 2.408060 83.100125 -1.585437 1.066390 21.454551 0.003087 -0.000000 157.816657 5.083294 -175.569398 -55.040287 0.703102 7.959047 102.732397 -4.839057 12.509958 21.454560 -0.003107 -0.000018 15.905076 0.469477 0.962989 21.804361 0.749027 1.997141 21.486452 0.761209 1.992595 15.352978 -3.641376 6.774908 -18.229700 -5.751699 8.816570 139.195471 -78.684134 39.979532 -34.239837 61.100830 -22.916135 -83.754867 -7.053051 2.523210 5.346768 -9.761800 30.809231 88.528855 71.354010 -91.529623 -54.302787 -41.410508 51.895316 -131.606503 -4.144968 -3.824246 -8.130208 24.488011 -26.900883 
-21.606251 83.616959 -168.361099 93.056212 6.825209 -77.800410 133.879494 -7.335204 167.170164 -53.819288 4.156280 2.523286 82.803811 -1.595202 1.370034 21.454557 0.003082 -0.000000 158.048665 5.126607 -175.469513 -54.504394 0.775979 8.023235 102.612807 -4.872385 12.643884 21.454558 -0.003100 -0.000016 15.880941 0.435614 0.877510 21.755046 0.698410 1.821220 21.437092 0.709510 1.816994 15.075110 -3.537472 6.938536 -17.782693 -6.082753 9.082843 138.124962 -78.799988 41.052804 -33.403266 60.998835 -23.802651 -84.739200 -6.283649 2.512556 5.665140 -8.784477 31.375826 89.593893 71.742681 -90.435953 -51.064140 -40.438736 49.275181 -130.805690 -3.846882 -3.815158 -7.565367 19.766125 -30.786405 
-21.641199 83.798767 -168.521606 93.091893 7.104007 -77.529723 133.835439 -7.269206 166.988454 -53.514956 4.104495 2.725867 82.515003 -1.673204 1.631253 21.454553 0.003093 0.000001 158.225703 5.219393 -175.422672 -53.893765 0.939053 8.090444 102.438009 -4.905832 12.719002 21.454558 -0.003102 -0.000017 15.877007 0.386222 0.768041 21.745874 0.621146 1.594920 21.427891 0.630893 1.591161 14.892432 -3.889820 7.498739 -17.435190 -6.154347 9.614533 138.650600 -78.939488 40.510658 -32.910307 60.867927 -25.468298 -86.154326 -5.124376 2.493701 5.669219 -8.060433 32.055331 89.122781 72.512164 -90.830943 -48.483982 -39.866206 48.693197 -130.658295 -3.798372 -3.813029 -9.045389 15.474678 -31.084532 
